<svg width="900" height="1200" viewBox="0 0 900 1200" fill="none" xmlns="http://www.w3.org/2000/svg">
<rect width="900" height="1200" fill="white"/>
<path fill-rule="evenodd" clip-rule="evenodd" d="M50 549H450V149H50V549Z" fill="#34333B"/>
<path fill-rule="evenodd" clip-rule="evenodd" d="M312.532 368.687L271.941 368.264L270.141 385.002L284.372 385.508C277.597 402.501 244.393 400.002 248.164 372.186C250.998 351.282 276.04 342.384 287.913 360.698L311.958 352.204C306.834 314.494 210.24 319.406 221.602 386.134C227.994 423.676 282.721 428.647 302.645 401.657C308.272 394.034 313.417 380.386 312.532 368.687Z" fill="#F0F0F0"/>
<path fill-rule="evenodd" clip-rule="evenodd" d="M136.793 433.301L152.679 399.869L185.471 399.766L188.793 417.337L217.352 417.304L196.899 314.113L162.624 313.641C156.167 327.251 105.209 432.684 105.882 432.697L136.793 433.301Z" fill="#F0F0F0"/>
<path fill-rule="evenodd" clip-rule="evenodd" d="M162.852 375.452L181.389 375.71L176.082 345.088L162.852 375.452Z" fill="#34333B"/>
<path d="M199.318 297.762C202.811 297.762 205.643 295.046 205.643 291.696C205.643 288.347 202.811 285.631 199.318 285.631C195.824 285.631 192.992 288.347 192.992 291.696C192.992 295.046 195.824 297.762 199.318 297.762Z" fill="#F4C038"/>
<path fill-rule="evenodd" clip-rule="evenodd" d="M147.027 248.968L158.406 298.607L169.37 296.089L160.4 246.333L147.027 248.968Z" fill="#F4C038"/>
<path fill-rule="evenodd" clip-rule="evenodd" d="M100.26 301.426L135.21 325.913L141.126 315.825L107.625 291.066L100.26 301.426Z" fill="#F4C038"/>
<path fill-rule="evenodd" clip-rule="evenodd" d="M84.3968 362.805L122.891 361.558L123.121 351.983L84 349.939L84.3968 362.805Z" fill="#F4C038"/>
<path fill-rule="evenodd" clip-rule="evenodd" d="M198.797 278.595L208.495 280.739L220.77 246.781L207.531 243L198.797 278.595Z" fill="#F4C038"/>
<path fill-rule="evenodd" clip-rule="evenodd" d="M373.164 406.09C388.299 404.482 392.512 404.898 398.416 383.89C405.194 359.772 398.566 358.78 388.07 352.177C388.333 349.96 388.903 346.925 389.935 344.888C390.807 343.17 399.45 331.633 386.941 325.574C382.889 323.611 383.107 325.539 381.161 321.662C379.581 318.514 380.465 318.173 377.293 315.457C373.595 312.291 367.467 310.964 361.956 313.52C352.479 317.916 360.966 317.926 348.138 315.984C329.967 313.233 332.496 331.686 331.358 337.387L321.823 384.42C315.477 416.965 311.688 415.01 351.808 423.415C371.11 427.458 369.722 412.077 373.164 406.09Z" fill="#F0F0F0"/>
<path fill-rule="evenodd" clip-rule="evenodd" d="M360.594 415.558L381.51 344.843L372.666 342.734C370.084 346.665 369.016 353.381 361.444 350.483C357.358 348.002 359.08 344.29 358.871 338.753L339.882 334.275C335.233 356.775 330.586 379.274 325.938 401.774C324.344 409.051 326.172 409.718 332.484 411.062C338.792 412.691 360.014 419.42 360.594 415.558Z" fill="#34333B"/>
<path fill-rule="evenodd" clip-rule="evenodd" d="M333.421 403.956L356.128 408.827L371.258 356.733C366.678 358.5 362.026 359.139 357.733 356.905C352.451 354.155 352.663 351.353 350.965 344.264L345.806 343.282L333.421 403.956Z" fill="#F4C038"/>
<path d="M849.981 651.019V1050.98H50.0186V651.019H849.981Z" fill="#34333B" stroke="#363D43" stroke-width="0.0377953"/>
<mask id="path-14-outside-1_295_1976" maskUnits="userSpaceOnUse" x="118" y="682" width="664" height="321" fill="black">
<rect fill="white" x="118" y="682" width="664" height="321"/>
<path fill-rule="evenodd" clip-rule="evenodd" d="M712.604 933.626C734.356 933.352 740.296 934.505 751.495 905.396C764.351 871.977 755.051 869.682 740.994 858.888C741.664 855.768 742.878 851.525 744.619 848.764C746.087 846.436 759.923 831.169 742.929 820.881C737.424 817.547 737.477 820.321 735.224 814.545C733.395 809.854 734.698 809.486 730.545 805.199C725.704 800.202 717.161 797.498 708.979 800.401C694.907 805.395 706.982 806.54 688.986 802.068C663.494 795.734 664.636 822.331 662.258 830.293L642.428 895.954C629.065 941.422 623.932 938.136 679.908 955.437C706.836 963.76 706.91 941.688 712.604 933.626Z"/>
<path fill-rule="evenodd" clip-rule="evenodd" d="M196.163 901.24L212.461 866.941L246.105 866.835L249.512 884.862L278.813 884.828L257.829 778.959L222.664 778.475C216.04 792.438 163.759 900.607 164.45 900.62L196.163 901.24Z"/>
<path fill-rule="evenodd" clip-rule="evenodd" d="M439.221 884.777C453.474 885.137 489.21 885.382 503.899 881.293C511.307 878.074 516.932 871.619 518.39 862.483C519.722 854.135 518.391 848.109 512.955 842.848L508.135 838.116C515.237 834.707 520.104 831.061 520.927 820.38C521.719 810.111 517.684 803.385 510.324 799.467C501.474 794.757 462.871 794.616 451.078 796.605L439.221 884.777Z"/>
<path fill-rule="evenodd" clip-rule="evenodd" d="M693.455 945.424L732.634 847.576L720.329 843.399C716.132 848.648 713.718 858.063 703.327 852.931C697.843 848.857 700.787 843.804 701.228 835.896L674.801 826.997C665.191 858.396 655.582 889.796 645.972 921.195C642.736 931.339 645.248 932.53 654.052 935.283C662.811 938.442 692.115 950.842 693.455 945.424Z"/>
<path fill-rule="evenodd" clip-rule="evenodd" d="M376.461 834.95L334.817 834.515L332.97 851.688L347.571 852.207C340.62 869.641 306.555 867.077 310.423 838.539C313.331 817.093 339.022 807.964 351.204 826.753L375.872 818.039C370.615 779.35 271.515 784.39 283.172 852.849C289.73 891.366 345.877 896.465 366.318 868.775C372.091 860.954 377.37 846.952 376.461 834.95Z"/>
<path fill-rule="evenodd" clip-rule="evenodd" d="M533.904 829.527L542.822 841.019C548.954 838.562 568.553 830.369 567.1 844.846C557.819 847.851 526.084 842.134 523.836 865.436C521.698 887.596 551.335 890.953 561.909 879.267L564.042 884.427L585.884 884.323C587.758 879.119 596.53 835.841 586.286 826.923C574.942 817.047 544.746 819.987 533.904 829.527Z"/>
<path fill-rule="evenodd" clip-rule="evenodd" d="M656.329 925.297L687.993 935.252L716.459 863.133C709.706 865.039 703.001 865.328 697.19 861.577C690.039 856.961 690.714 853.002 689.242 842.688L682.03 840.604L656.329 925.297Z"/>
<path fill-rule="evenodd" clip-rule="evenodd" d="M405.916 884.851L417.608 796.523L391.092 796.118L377.997 884.8L405.916 884.851Z"/>
<path fill-rule="evenodd" clip-rule="evenodd" d="M603.977 822.707L595.535 884.819L618.352 884.86L624.444 853.63C628.652 840.511 634.792 843.128 648.583 842.101C649.449 839.66 650.286 836.246 651.134 833.145C654.25 821.75 652.358 824.052 651.002 822.966C644.465 819.689 634.056 823.192 630.098 827.139L627.495 823.961C623.517 820.542 609.244 822.568 603.977 822.707Z"/>
<path fill-rule="evenodd" clip-rule="evenodd" d="M716.977 922.082C733.195 923.556 735.814 914.803 740.708 902.351C745.668 889.728 751.243 875.665 736.858 870.542L716.977 922.082Z"/>
<path fill-rule="evenodd" clip-rule="evenodd" d="M206.664 712.124L218.339 763.05L229.587 760.467L220.384 709.42L206.664 712.124Z"/>
<path fill-rule="evenodd" clip-rule="evenodd" d="M158.68 765.943L194.537 791.065L200.607 780.716L166.237 755.315L158.68 765.943Z"/>
<path fill-rule="evenodd" clip-rule="evenodd" d="M142.407 828.915L181.9 827.635L182.136 817.812L142 815.715L142.407 828.915Z"/>
<path fill-rule="evenodd" clip-rule="evenodd" d="M259.776 742.519L269.726 744.719L282.32 709.879L268.737 706L259.776 742.519Z"/>
<path fill-rule="evenodd" clip-rule="evenodd" d="M222.899 841.889L241.918 842.154L236.473 810.737L222.899 841.889Z"/>
<path fill-rule="evenodd" clip-rule="evenodd" d="M467.87 863.233C472.668 863.542 489.167 864.767 490.669 860.583C494.692 845.734 483.687 849.197 469.872 848.531L467.87 863.233Z"/>
<path fill-rule="evenodd" clip-rule="evenodd" d="M471.806 827.025C475.897 827.289 489.964 828.333 491.244 824.766C494.675 812.105 485.292 815.058 473.513 814.49L471.806 827.025Z"/>
<path fill-rule="evenodd" clip-rule="evenodd" d="M549.201 861.316C546.646 864.058 546.732 866.534 549.075 868.779C558.628 873.265 564.961 867.825 565.515 857.981C557.454 857.567 554.068 857.979 549.201 861.316Z"/>
<path d="M260.31 762.185C263.894 762.185 266.8 759.398 266.8 755.962C266.8 752.525 263.894 749.739 260.31 749.739C256.726 749.739 253.821 752.525 253.821 755.962C253.821 759.398 256.726 762.185 260.31 762.185Z"/>
<path fill-rule="evenodd" clip-rule="evenodd" d="M301.005 902.955L313.451 902.741L311.962 907.742L336.855 907.636L335.685 919.444L324.515 919.337L322.28 932.953L334.515 932.847L333.345 944.443L318.132 944.549L318.238 948.485L325.259 948.591L330 979H317L313.553 957.048L304.081 979H288.5L304.081 944.704L291.684 944.65L291.95 933.373L308.863 932.893L311.362 919.807L308.171 919.541L306.255 925.925L294.128 925.765L301.005 902.955Z"/>
<path fill-rule="evenodd" clip-rule="evenodd" d="M340.562 905.922H375.774L367 979H332L340.562 905.922Z"/>
<path fill-rule="evenodd" clip-rule="evenodd" d="M351.945 918.05L360.985 917.945L355.136 966.133H346.307L351.945 918.05Z"/>
<path fill-rule="evenodd" clip-rule="evenodd" d="M384.439 903.1L398.906 902.994L402.151 917.515L388.163 917.462L384.439 903.1Z"/>
<path fill-rule="evenodd" clip-rule="evenodd" d="M380.392 921.422H400.976L395.125 966.953H401L399 979H380.5L385.657 933.763L378.849 933.869L380.392 921.422Z"/>
<path fill-rule="evenodd" clip-rule="evenodd" d="M411.026 904.716L458.046 904.397L452.514 949.077L406.026 948.757L411.026 904.716Z"/>
<path fill-rule="evenodd" clip-rule="evenodd" d="M432.5 953H448L453 979H439L432.5 953Z"/>
<path fill-rule="evenodd" clip-rule="evenodd" d="M411.024 953.011L426.5 953L416 979H401L411.024 953.011Z"/>
<path fill-rule="evenodd" clip-rule="evenodd" d="M423.414 916.388L442.776 916.494L440.542 936.812L420.808 936.813L423.414 916.388Z"/>
<path fill-rule="evenodd" clip-rule="evenodd" d="M466.654 906.093L485.11 906.067L485.15 901.931L498.726 901.918L498.673 906.067L515.534 905.96L515.852 901.944L529.26 901.918L529.045 905.96L545.661 906.068L545.535 915.269L528.141 915.163L527.821 918.567L514.737 918.408L514.842 915.162L496.864 915.003L496.811 918.194L484.472 918.035V915.128L466.706 915.056L466.654 906.093Z"/>
<path fill-rule="evenodd" clip-rule="evenodd" d="M474.972 920.632L474.866 929.249L505.45 929.674L498.109 934.834L497.312 941.908L489.759 949.886L508.601 949.829L509.971 947.28L510.929 938.823L523.083 952.28L481.249 952.014L494.759 937.705L494.812 932.44L465.876 932.068L465.929 941.269L476.408 941.216L462.1 954.301L475.664 954.567L475.393 962.119L528.371 962.278V955.629L541.775 955.31L531.084 942.811L542.466 932.97L542.52 929.566L531.349 929.407L524.381 936.375L520.818 933.29L531.882 922.971L531.881 920.815L474.972 920.632Z"/>
<path fill-rule="evenodd" clip-rule="evenodd" d="M464.754 965.012L479.5 965L474 979H459.646L464.754 965.012Z"/>
<path fill-rule="evenodd" clip-rule="evenodd" d="M483.5 965L497.199 965.065L499 979H485L483.5 965Z"/>
<path fill-rule="evenodd" clip-rule="evenodd" d="M502.465 965.225L515.5 965L518.5 979H505C504.947 978.681 502.465 965.225 502.465 965.225Z"/>
<path fill-rule="evenodd" clip-rule="evenodd" d="M521.721 964.959L535 965L537.5 979H524L521.721 964.959Z"/>
<path fill-rule="evenodd" clip-rule="evenodd" d="M554.174 902.655L567.366 902.761L566.493 905.023L565.689 908.741L578.747 909.141L574.879 928.788L564.305 928.688L566.274 920.71L562.065 920.655L559.996 928.05L547.445 928.209L554.174 902.655Z"/>
<path fill-rule="evenodd" clip-rule="evenodd" d="M562.723 967.16L569.638 967.054L568.5 979H548.5L554.106 931.417L567.297 931.31L562.723 967.16Z"/>
<path fill-rule="evenodd" clip-rule="evenodd" d="M579.318 905.46L601.657 902.269L601.126 911.63L590.063 913.863L588.998 915.14L588.36 926.63L592.622 926.521L592.722 916.949H600.488L598.998 936.948L576.127 937.161L579.318 905.46Z"/>
<path fill-rule="evenodd" clip-rule="evenodd" d="M602.19 913.757L603.999 903.865H629.5L626 928.788L625 937.054L612.802 936.852L617.403 931.629L619.423 914.928L615.487 914.396L610.134 936.965L600.914 937.054L607.03 913.757H602.19Z"/>
<path fill-rule="evenodd" clip-rule="evenodd" d="M577.087 940.875C579.215 940.875 624.5 940.875 624.5 940.875L619.423 979H572.619L577.087 940.875Z"/>
<path fill-rule="evenodd" clip-rule="evenodd" d="M605.943 949.812L605.836 954.922L612.139 955.074L612.193 949.865L605.943 949.812Z"/>
<path fill-rule="evenodd" clip-rule="evenodd" d="M604.218 963.879L604.11 968.989L610.413 969.141L610.468 963.932L604.218 963.879Z"/>
<path fill-rule="evenodd" clip-rule="evenodd" d="M586.612 963.772L586.505 968.882L592.808 969.034L592.862 963.825L586.612 963.772Z"/>
<path fill-rule="evenodd" clip-rule="evenodd" d="M588.314 949.943L588.207 955.053L594.51 955.205L594.564 949.996L588.314 949.943Z"/>
</mask>
<path fill-rule="evenodd" clip-rule="evenodd" d="M712.604 933.626C734.356 933.352 740.296 934.505 751.495 905.396C764.351 871.977 755.051 869.682 740.994 858.888C741.664 855.768 742.878 851.525 744.619 848.764C746.087 846.436 759.923 831.169 742.929 820.881C737.424 817.547 737.477 820.321 735.224 814.545C733.395 809.854 734.698 809.486 730.545 805.199C725.704 800.202 717.161 797.498 708.979 800.401C694.907 805.395 706.982 806.54 688.986 802.068C663.494 795.734 664.636 822.331 662.258 830.293L642.428 895.954C629.065 941.422 623.932 938.136 679.908 955.437C706.836 963.76 706.91 941.688 712.604 933.626Z" fill="#F0F0F0"/>
<path fill-rule="evenodd" clip-rule="evenodd" d="M196.163 901.24L212.461 866.941L246.105 866.835L249.512 884.862L278.813 884.828L257.829 778.959L222.664 778.475C216.04 792.438 163.759 900.607 164.45 900.62L196.163 901.24Z" fill="#F0F0F0"/>
<path fill-rule="evenodd" clip-rule="evenodd" d="M439.221 884.777C453.474 885.137 489.21 885.382 503.899 881.293C511.307 878.074 516.932 871.619 518.39 862.483C519.722 854.135 518.391 848.109 512.955 842.848L508.135 838.116C515.237 834.707 520.104 831.061 520.927 820.38C521.719 810.111 517.684 803.385 510.324 799.467C501.474 794.757 462.871 794.616 451.078 796.605L439.221 884.777Z" fill="#F0F0F0"/>
<path fill-rule="evenodd" clip-rule="evenodd" d="M693.455 945.424L732.634 847.576L720.329 843.399C716.132 848.648 713.718 858.063 703.327 852.931C697.843 848.857 700.787 843.804 701.228 835.896L674.801 826.997C665.191 858.396 655.582 889.796 645.972 921.195C642.736 931.339 645.248 932.53 654.052 935.283C662.811 938.442 692.115 950.842 693.455 945.424Z" fill="#34333B"/>
<path fill-rule="evenodd" clip-rule="evenodd" d="M376.461 834.95L334.817 834.515L332.97 851.688L347.571 852.207C340.62 869.641 306.555 867.077 310.423 838.539C313.331 817.093 339.022 807.964 351.204 826.753L375.872 818.039C370.615 779.35 271.515 784.39 283.172 852.849C289.73 891.366 345.877 896.465 366.318 868.775C372.091 860.954 377.37 846.952 376.461 834.95Z" fill="#F0F0F0"/>
<path fill-rule="evenodd" clip-rule="evenodd" d="M533.904 829.527L542.822 841.019C548.954 838.562 568.553 830.369 567.1 844.846C557.819 847.851 526.084 842.134 523.836 865.436C521.698 887.596 551.335 890.953 561.909 879.267L564.042 884.427L585.884 884.323C587.758 879.119 596.53 835.841 586.286 826.923C574.942 817.047 544.746 819.987 533.904 829.527Z" fill="#F0F0F0"/>
<path fill-rule="evenodd" clip-rule="evenodd" d="M656.329 925.297L687.993 935.252L716.459 863.133C709.706 865.039 703.001 865.328 697.19 861.577C690.039 856.961 690.714 853.002 689.242 842.688L682.03 840.604L656.329 925.297Z" fill="#F4C038"/>
<path fill-rule="evenodd" clip-rule="evenodd" d="M405.916 884.851L417.608 796.523L391.092 796.118L377.997 884.8L405.916 884.851Z" fill="#F0F0F0"/>
<path fill-rule="evenodd" clip-rule="evenodd" d="M603.977 822.707L595.535 884.819L618.352 884.86L624.444 853.63C628.652 840.511 634.792 843.128 648.583 842.101C649.449 839.66 650.286 836.246 651.134 833.145C654.25 821.75 652.358 824.052 651.002 822.966C644.465 819.689 634.056 823.192 630.098 827.139L627.495 823.961C623.517 820.542 609.244 822.568 603.977 822.707Z" fill="#F0F0F0"/>
<path fill-rule="evenodd" clip-rule="evenodd" d="M716.977 922.082C733.195 923.556 735.814 914.803 740.708 902.351C745.668 889.728 751.243 875.665 736.858 870.542L716.977 922.082Z" fill="#34333B"/>
<path fill-rule="evenodd" clip-rule="evenodd" d="M206.664 712.124L218.339 763.05L229.587 760.467L220.384 709.42L206.664 712.124Z" fill="#F4C038"/>
<path fill-rule="evenodd" clip-rule="evenodd" d="M158.68 765.943L194.537 791.065L200.607 780.716L166.237 755.315L158.68 765.943Z" fill="#F4C038"/>
<path fill-rule="evenodd" clip-rule="evenodd" d="M142.407 828.915L181.9 827.635L182.136 817.812L142 815.715L142.407 828.915Z" fill="#F4C038"/>
<path fill-rule="evenodd" clip-rule="evenodd" d="M259.776 742.519L269.726 744.719L282.32 709.879L268.737 706L259.776 742.519Z" fill="#F4C038"/>
<path fill-rule="evenodd" clip-rule="evenodd" d="M222.899 841.889L241.918 842.154L236.473 810.737L222.899 841.889Z" fill="#34333B"/>
<path fill-rule="evenodd" clip-rule="evenodd" d="M467.87 863.233C472.668 863.542 489.167 864.767 490.669 860.583C494.692 845.734 483.687 849.197 469.872 848.531L467.87 863.233Z" fill="#34333B"/>
<path fill-rule="evenodd" clip-rule="evenodd" d="M471.806 827.025C475.897 827.289 489.964 828.333 491.244 824.766C494.675 812.105 485.292 815.058 473.513 814.49L471.806 827.025Z" fill="#34333B"/>
<path fill-rule="evenodd" clip-rule="evenodd" d="M549.201 861.316C546.646 864.058 546.732 866.534 549.075 868.779C558.628 873.265 564.961 867.825 565.515 857.981C557.454 857.567 554.068 857.979 549.201 861.316Z" fill="#34333B"/>
<path d="M260.31 762.185C263.894 762.185 266.8 759.398 266.8 755.962C266.8 752.525 263.894 749.739 260.31 749.739C256.726 749.739 253.821 752.525 253.821 755.962C253.821 759.398 256.726 762.185 260.31 762.185Z" fill="#F4C038"/>
<path fill-rule="evenodd" clip-rule="evenodd" d="M301.005 902.955L313.451 902.741L311.962 907.742L336.855 907.636L335.685 919.444L324.515 919.337L322.28 932.953L334.515 932.847L333.345 944.443L318.132 944.549L318.238 948.485L325.259 948.591L330 979H317L313.553 957.048L304.081 979H288.5L304.081 944.704L291.684 944.65L291.95 933.373L308.863 932.893L311.362 919.807L308.171 919.541L306.255 925.925L294.128 925.765L301.005 902.955Z" fill="#E6E6E6"/>
<path fill-rule="evenodd" clip-rule="evenodd" d="M340.562 905.922H375.774L367 979H332L340.562 905.922Z" fill="#E6E6E6"/>
<path fill-rule="evenodd" clip-rule="evenodd" d="M351.945 918.05L360.985 917.945L355.136 966.133H346.307L351.945 918.05Z" fill="#34333B"/>
<path fill-rule="evenodd" clip-rule="evenodd" d="M384.439 903.1L398.906 902.994L402.151 917.515L388.163 917.462L384.439 903.1Z" fill="#E6E6E6"/>
<path fill-rule="evenodd" clip-rule="evenodd" d="M380.392 921.422H400.976L395.125 966.953H401L399 979H380.5L385.657 933.763L378.849 933.869L380.392 921.422Z" fill="#E6E6E6"/>
<path fill-rule="evenodd" clip-rule="evenodd" d="M411.026 904.716L458.046 904.397L452.514 949.077L406.026 948.757L411.026 904.716Z" fill="#E6E6E6"/>
<path fill-rule="evenodd" clip-rule="evenodd" d="M432.5 953H448L453 979H439L432.5 953Z" fill="#E6E6E6"/>
<path fill-rule="evenodd" clip-rule="evenodd" d="M411.024 953.011L426.5 953L416 979H401L411.024 953.011Z" fill="#E6E6E6"/>
<path fill-rule="evenodd" clip-rule="evenodd" d="M423.414 916.388L442.776 916.494L440.542 936.812L420.808 936.813L423.414 916.388Z" fill="#34333B"/>
<path fill-rule="evenodd" clip-rule="evenodd" d="M466.654 906.093L485.11 906.067L485.15 901.931L498.726 901.918L498.673 906.067L515.534 905.96L515.852 901.944L529.26 901.918L529.045 905.96L545.661 906.068L545.535 915.269L528.141 915.163L527.821 918.567L514.737 918.408L514.842 915.162L496.864 915.003L496.811 918.194L484.472 918.035V915.128L466.706 915.056L466.654 906.093Z" fill="#E6E6E6"/>
<path fill-rule="evenodd" clip-rule="evenodd" d="M474.972 920.632L474.866 929.249L505.45 929.674L498.109 934.834L497.312 941.908L489.759 949.886L508.601 949.829L509.971 947.28L510.929 938.823L523.083 952.28L481.249 952.014L494.759 937.705L494.812 932.44L465.876 932.068L465.929 941.269L476.408 941.216L462.1 954.301L475.664 954.567L475.393 962.119L528.371 962.278V955.629L541.775 955.31L531.084 942.811L542.466 932.97L542.52 929.566L531.349 929.407L524.381 936.375L520.818 933.29L531.882 922.971L531.881 920.815L474.972 920.632Z" fill="#E6E6E6"/>
<path fill-rule="evenodd" clip-rule="evenodd" d="M464.754 965.012L479.5 965L474 979H459.646L464.754 965.012Z" fill="#E6E6E6"/>
<path fill-rule="evenodd" clip-rule="evenodd" d="M483.5 965L497.199 965.065L499 979H485L483.5 965Z" fill="#E6E6E6"/>
<path fill-rule="evenodd" clip-rule="evenodd" d="M502.465 965.225L515.5 965L518.5 979H505C504.947 978.681 502.465 965.225 502.465 965.225Z" fill="#E6E6E6"/>
<path fill-rule="evenodd" clip-rule="evenodd" d="M521.721 964.959L535 965L537.5 979H524L521.721 964.959Z" fill="#E6E6E6"/>
<path fill-rule="evenodd" clip-rule="evenodd" d="M554.174 902.655L567.366 902.761L566.493 905.023L565.689 908.741L578.747 909.141L574.879 928.788L564.305 928.688L566.274 920.71L562.065 920.655L559.996 928.05L547.445 928.209L554.174 902.655Z" fill="#E6E6E6"/>
<path fill-rule="evenodd" clip-rule="evenodd" d="M562.723 967.16L569.638 967.054L568.5 979H548.5L554.106 931.417L567.297 931.31L562.723 967.16Z" fill="#E6E6E6"/>
<path fill-rule="evenodd" clip-rule="evenodd" d="M579.318 905.46L601.657 902.269L601.126 911.63L590.063 913.863L588.998 915.14L588.36 926.63L592.622 926.521L592.722 916.949H600.488L598.998 936.948L576.127 937.161L579.318 905.46Z" fill="#E6E6E6"/>
<path fill-rule="evenodd" clip-rule="evenodd" d="M602.19 913.757L603.999 903.865H629.5L626 928.788L625 937.054L612.802 936.852L617.403 931.629L619.423 914.928L615.487 914.396L610.134 936.965L600.914 937.054L607.03 913.757H602.19Z" fill="#E6E6E6"/>
<path fill-rule="evenodd" clip-rule="evenodd" d="M577.087 940.875C579.215 940.875 624.5 940.875 624.5 940.875L619.423 979H572.619L577.087 940.875Z" fill="#E6E6E6"/>
<path fill-rule="evenodd" clip-rule="evenodd" d="M605.943 949.812L605.836 954.922L612.139 955.074L612.193 949.865L605.943 949.812Z" fill="#34333B"/>
<path fill-rule="evenodd" clip-rule="evenodd" d="M604.218 963.879L604.11 968.989L610.413 969.141L610.468 963.932L604.218 963.879Z" fill="#34333B"/>
<path fill-rule="evenodd" clip-rule="evenodd" d="M586.612 963.772L586.505 968.882L592.808 969.034L592.862 963.825L586.612 963.772Z" fill="#34333B"/>
<path fill-rule="evenodd" clip-rule="evenodd" d="M588.314 949.943L588.207 955.053L594.51 955.205L594.564 949.996L588.314 949.943Z" fill="#34333B"/>
<path fill-rule="evenodd" clip-rule="evenodd" d="M712.604 933.626C734.356 933.352 740.296 934.505 751.495 905.396C764.351 871.977 755.051 869.682 740.994 858.888C741.664 855.768 742.878 851.525 744.619 848.764C746.087 846.436 759.923 831.169 742.929 820.881C737.424 817.547 737.477 820.321 735.224 814.545C733.395 809.854 734.698 809.486 730.545 805.199C725.704 800.202 717.161 797.498 708.979 800.401C694.907 805.395 706.982 806.54 688.986 802.068C663.494 795.734 664.636 822.331 662.258 830.293L642.428 895.954C629.065 941.422 623.932 938.136 679.908 955.437C706.836 963.76 706.91 941.688 712.604 933.626Z" stroke="#34333B" stroke-width="48" stroke-linejoin="round" mask="url(#path-14-outside-1_295_1976)"/>
<path fill-rule="evenodd" clip-rule="evenodd" d="M196.163 901.24L212.461 866.941L246.105 866.835L249.512 884.862L278.813 884.828L257.829 778.959L222.664 778.475C216.04 792.438 163.759 900.607 164.45 900.62L196.163 901.24Z" stroke="#34333B" stroke-width="48" stroke-linejoin="round" mask="url(#path-14-outside-1_295_1976)"/>
<path fill-rule="evenodd" clip-rule="evenodd" d="M439.221 884.777C453.474 885.137 489.21 885.382 503.899 881.293C511.307 878.074 516.932 871.619 518.39 862.483C519.722 854.135 518.391 848.109 512.955 842.848L508.135 838.116C515.237 834.707 520.104 831.061 520.927 820.38C521.719 810.111 517.684 803.385 510.324 799.467C501.474 794.757 462.871 794.616 451.078 796.605L439.221 884.777Z" stroke="#34333B" stroke-width="48" stroke-linejoin="round" mask="url(#path-14-outside-1_295_1976)"/>
<path fill-rule="evenodd" clip-rule="evenodd" d="M693.455 945.424L732.634 847.576L720.329 843.399C716.132 848.648 713.718 858.063 703.327 852.931C697.843 848.857 700.787 843.804 701.228 835.896L674.801 826.997C665.191 858.396 655.582 889.796 645.972 921.195C642.736 931.339 645.248 932.53 654.052 935.283C662.811 938.442 692.115 950.842 693.455 945.424Z" stroke="#34333B" stroke-width="48" stroke-linejoin="round" mask="url(#path-14-outside-1_295_1976)"/>
<path fill-rule="evenodd" clip-rule="evenodd" d="M376.461 834.95L334.817 834.515L332.97 851.688L347.571 852.207C340.62 869.641 306.555 867.077 310.423 838.539C313.331 817.093 339.022 807.964 351.204 826.753L375.872 818.039C370.615 779.35 271.515 784.39 283.172 852.849C289.73 891.366 345.877 896.465 366.318 868.775C372.091 860.954 377.37 846.952 376.461 834.95Z" stroke="#34333B" stroke-width="48" stroke-linejoin="round" mask="url(#path-14-outside-1_295_1976)"/>
<path fill-rule="evenodd" clip-rule="evenodd" d="M533.904 829.527L542.822 841.019C548.954 838.562 568.553 830.369 567.1 844.846C557.819 847.851 526.084 842.134 523.836 865.436C521.698 887.596 551.335 890.953 561.909 879.267L564.042 884.427L585.884 884.323C587.758 879.119 596.53 835.841 586.286 826.923C574.942 817.047 544.746 819.987 533.904 829.527Z" stroke="#34333B" stroke-width="48" stroke-linejoin="round" mask="url(#path-14-outside-1_295_1976)"/>
<path fill-rule="evenodd" clip-rule="evenodd" d="M656.329 925.297L687.993 935.252L716.459 863.133C709.706 865.039 703.001 865.328 697.19 861.577C690.039 856.961 690.714 853.002 689.242 842.688L682.03 840.604L656.329 925.297Z" stroke="#34333B" stroke-width="48" stroke-linejoin="round" mask="url(#path-14-outside-1_295_1976)"/>
<path fill-rule="evenodd" clip-rule="evenodd" d="M405.916 884.851L417.608 796.523L391.092 796.118L377.997 884.8L405.916 884.851Z" stroke="#34333B" stroke-width="48" stroke-linejoin="round" mask="url(#path-14-outside-1_295_1976)"/>
<path fill-rule="evenodd" clip-rule="evenodd" d="M603.977 822.707L595.535 884.819L618.352 884.86L624.444 853.63C628.652 840.511 634.792 843.128 648.583 842.101C649.449 839.66 650.286 836.246 651.134 833.145C654.25 821.75 652.358 824.052 651.002 822.966C644.465 819.689 634.056 823.192 630.098 827.139L627.495 823.961C623.517 820.542 609.244 822.568 603.977 822.707Z" stroke="#34333B" stroke-width="48" stroke-linejoin="round" mask="url(#path-14-outside-1_295_1976)"/>
<path fill-rule="evenodd" clip-rule="evenodd" d="M716.977 922.082C733.195 923.556 735.814 914.803 740.708 902.351C745.668 889.728 751.243 875.665 736.858 870.542L716.977 922.082Z" stroke="#34333B" stroke-width="48" stroke-linejoin="round" mask="url(#path-14-outside-1_295_1976)"/>
<path fill-rule="evenodd" clip-rule="evenodd" d="M206.664 712.124L218.339 763.05L229.587 760.467L220.384 709.42L206.664 712.124Z" stroke="#34333B" stroke-width="48" stroke-linejoin="round" mask="url(#path-14-outside-1_295_1976)"/>
<path fill-rule="evenodd" clip-rule="evenodd" d="M158.68 765.943L194.537 791.065L200.607 780.716L166.237 755.315L158.68 765.943Z" stroke="#34333B" stroke-width="48" stroke-linejoin="round" mask="url(#path-14-outside-1_295_1976)"/>
<path fill-rule="evenodd" clip-rule="evenodd" d="M142.407 828.915L181.9 827.635L182.136 817.812L142 815.715L142.407 828.915Z" stroke="#34333B" stroke-width="48" stroke-linejoin="round" mask="url(#path-14-outside-1_295_1976)"/>
<path fill-rule="evenodd" clip-rule="evenodd" d="M259.776 742.519L269.726 744.719L282.32 709.879L268.737 706L259.776 742.519Z" stroke="#34333B" stroke-width="48" stroke-linejoin="round" mask="url(#path-14-outside-1_295_1976)"/>
<path fill-rule="evenodd" clip-rule="evenodd" d="M222.899 841.889L241.918 842.154L236.473 810.737L222.899 841.889Z" stroke="#34333B" stroke-width="48" stroke-linejoin="round" mask="url(#path-14-outside-1_295_1976)"/>
<path fill-rule="evenodd" clip-rule="evenodd" d="M467.87 863.233C472.668 863.542 489.167 864.767 490.669 860.583C494.692 845.734 483.687 849.197 469.872 848.531L467.87 863.233Z" stroke="#34333B" stroke-width="48" stroke-linejoin="round" mask="url(#path-14-outside-1_295_1976)"/>
<path fill-rule="evenodd" clip-rule="evenodd" d="M471.806 827.025C475.897 827.289 489.964 828.333 491.244 824.766C494.675 812.105 485.292 815.058 473.513 814.49L471.806 827.025Z" stroke="#34333B" stroke-width="48" stroke-linejoin="round" mask="url(#path-14-outside-1_295_1976)"/>
<path fill-rule="evenodd" clip-rule="evenodd" d="M549.201 861.316C546.646 864.058 546.732 866.534 549.075 868.779C558.628 873.265 564.961 867.825 565.515 857.981C557.454 857.567 554.068 857.979 549.201 861.316Z" stroke="#34333B" stroke-width="48" stroke-linejoin="round" mask="url(#path-14-outside-1_295_1976)"/>
<path d="M260.31 762.185C263.894 762.185 266.8 759.398 266.8 755.962C266.8 752.525 263.894 749.739 260.31 749.739C256.726 749.739 253.821 752.525 253.821 755.962C253.821 759.398 256.726 762.185 260.31 762.185Z" stroke="#34333B" stroke-width="48" stroke-linejoin="round" mask="url(#path-14-outside-1_295_1976)"/>
<path fill-rule="evenodd" clip-rule="evenodd" d="M301.005 902.955L313.451 902.741L311.962 907.742L336.855 907.636L335.685 919.444L324.515 919.337L322.28 932.953L334.515 932.847L333.345 944.443L318.132 944.549L318.238 948.485L325.259 948.591L330 979H317L313.553 957.048L304.081 979H288.5L304.081 944.704L291.684 944.65L291.95 933.373L308.863 932.893L311.362 919.807L308.171 919.541L306.255 925.925L294.128 925.765L301.005 902.955Z" stroke="#34333B" stroke-width="48" stroke-linejoin="round" mask="url(#path-14-outside-1_295_1976)"/>
<path fill-rule="evenodd" clip-rule="evenodd" d="M340.562 905.922H375.774L367 979H332L340.562 905.922Z" stroke="#34333B" stroke-width="48" stroke-linejoin="round" mask="url(#path-14-outside-1_295_1976)"/>
<path fill-rule="evenodd" clip-rule="evenodd" d="M351.945 918.05L360.985 917.945L355.136 966.133H346.307L351.945 918.05Z" stroke="#34333B" stroke-width="48" stroke-linejoin="round" mask="url(#path-14-outside-1_295_1976)"/>
<path fill-rule="evenodd" clip-rule="evenodd" d="M384.439 903.1L398.906 902.994L402.151 917.515L388.163 917.462L384.439 903.1Z" stroke="#34333B" stroke-width="48" stroke-linejoin="round" mask="url(#path-14-outside-1_295_1976)"/>
<path fill-rule="evenodd" clip-rule="evenodd" d="M380.392 921.422H400.976L395.125 966.953H401L399 979H380.5L385.657 933.763L378.849 933.869L380.392 921.422Z" stroke="#34333B" stroke-width="48" stroke-linejoin="round" mask="url(#path-14-outside-1_295_1976)"/>
<path fill-rule="evenodd" clip-rule="evenodd" d="M411.026 904.716L458.046 904.397L452.514 949.077L406.026 948.757L411.026 904.716Z" stroke="#34333B" stroke-width="48" stroke-linejoin="round" mask="url(#path-14-outside-1_295_1976)"/>
<path fill-rule="evenodd" clip-rule="evenodd" d="M432.5 953H448L453 979H439L432.5 953Z" stroke="#34333B" stroke-width="48" stroke-linejoin="round" mask="url(#path-14-outside-1_295_1976)"/>
<path fill-rule="evenodd" clip-rule="evenodd" d="M411.024 953.011L426.5 953L416 979H401L411.024 953.011Z" stroke="#34333B" stroke-width="48" stroke-linejoin="round" mask="url(#path-14-outside-1_295_1976)"/>
<path fill-rule="evenodd" clip-rule="evenodd" d="M423.414 916.388L442.776 916.494L440.542 936.812L420.808 936.813L423.414 916.388Z" stroke="#34333B" stroke-width="48" stroke-linejoin="round" mask="url(#path-14-outside-1_295_1976)"/>
<path fill-rule="evenodd" clip-rule="evenodd" d="M466.654 906.093L485.11 906.067L485.15 901.931L498.726 901.918L498.673 906.067L515.534 905.96L515.852 901.944L529.26 901.918L529.045 905.96L545.661 906.068L545.535 915.269L528.141 915.163L527.821 918.567L514.737 918.408L514.842 915.162L496.864 915.003L496.811 918.194L484.472 918.035V915.128L466.706 915.056L466.654 906.093Z" stroke="#34333B" stroke-width="48" stroke-linejoin="round" mask="url(#path-14-outside-1_295_1976)"/>
<path fill-rule="evenodd" clip-rule="evenodd" d="M474.972 920.632L474.866 929.249L505.45 929.674L498.109 934.834L497.312 941.908L489.759 949.886L508.601 949.829L509.971 947.28L510.929 938.823L523.083 952.28L481.249 952.014L494.759 937.705L494.812 932.44L465.876 932.068L465.929 941.269L476.408 941.216L462.1 954.301L475.664 954.567L475.393 962.119L528.371 962.278V955.629L541.775 955.31L531.084 942.811L542.466 932.97L542.52 929.566L531.349 929.407L524.381 936.375L520.818 933.29L531.882 922.971L531.881 920.815L474.972 920.632Z" stroke="#34333B" stroke-width="48" stroke-linejoin="round" mask="url(#path-14-outside-1_295_1976)"/>
<path fill-rule="evenodd" clip-rule="evenodd" d="M464.754 965.012L479.5 965L474 979H459.646L464.754 965.012Z" stroke="#34333B" stroke-width="48" stroke-linejoin="round" mask="url(#path-14-outside-1_295_1976)"/>
<path fill-rule="evenodd" clip-rule="evenodd" d="M483.5 965L497.199 965.065L499 979H485L483.5 965Z" stroke="#34333B" stroke-width="48" stroke-linejoin="round" mask="url(#path-14-outside-1_295_1976)"/>
<path fill-rule="evenodd" clip-rule="evenodd" d="M502.465 965.225L515.5 965L518.5 979H505C504.947 978.681 502.465 965.225 502.465 965.225Z" stroke="#34333B" stroke-width="48" stroke-linejoin="round" mask="url(#path-14-outside-1_295_1976)"/>
<path fill-rule="evenodd" clip-rule="evenodd" d="M521.721 964.959L535 965L537.5 979H524L521.721 964.959Z" stroke="#34333B" stroke-width="48" stroke-linejoin="round" mask="url(#path-14-outside-1_295_1976)"/>
<path fill-rule="evenodd" clip-rule="evenodd" d="M554.174 902.655L567.366 902.761L566.493 905.023L565.689 908.741L578.747 909.141L574.879 928.788L564.305 928.688L566.274 920.71L562.065 920.655L559.996 928.05L547.445 928.209L554.174 902.655Z" stroke="#34333B" stroke-width="48" stroke-linejoin="round" mask="url(#path-14-outside-1_295_1976)"/>
<path fill-rule="evenodd" clip-rule="evenodd" d="M562.723 967.16L569.638 967.054L568.5 979H548.5L554.106 931.417L567.297 931.31L562.723 967.16Z" stroke="#34333B" stroke-width="48" stroke-linejoin="round" mask="url(#path-14-outside-1_295_1976)"/>
<path fill-rule="evenodd" clip-rule="evenodd" d="M579.318 905.46L601.657 902.269L601.126 911.63L590.063 913.863L588.998 915.14L588.36 926.63L592.622 926.521L592.722 916.949H600.488L598.998 936.948L576.127 937.161L579.318 905.46Z" stroke="#34333B" stroke-width="48" stroke-linejoin="round" mask="url(#path-14-outside-1_295_1976)"/>
<path fill-rule="evenodd" clip-rule="evenodd" d="M602.19 913.757L603.999 903.865H629.5L626 928.788L625 937.054L612.802 936.852L617.403 931.629L619.423 914.928L615.487 914.396L610.134 936.965L600.914 937.054L607.03 913.757H602.19Z" stroke="#34333B" stroke-width="48" stroke-linejoin="round" mask="url(#path-14-outside-1_295_1976)"/>
<path fill-rule="evenodd" clip-rule="evenodd" d="M577.087 940.875C579.215 940.875 624.5 940.875 624.5 940.875L619.423 979H572.619L577.087 940.875Z" stroke="#34333B" stroke-width="48" stroke-linejoin="round" mask="url(#path-14-outside-1_295_1976)"/>
<path fill-rule="evenodd" clip-rule="evenodd" d="M605.943 949.812L605.836 954.922L612.139 955.074L612.193 949.865L605.943 949.812Z" stroke="#34333B" stroke-width="48" stroke-linejoin="round" mask="url(#path-14-outside-1_295_1976)"/>
<path fill-rule="evenodd" clip-rule="evenodd" d="M604.218 963.879L604.11 968.989L610.413 969.141L610.468 963.932L604.218 963.879Z" stroke="#34333B" stroke-width="48" stroke-linejoin="round" mask="url(#path-14-outside-1_295_1976)"/>
<path fill-rule="evenodd" clip-rule="evenodd" d="M586.612 963.772L586.505 968.882L592.808 969.034L592.862 963.825L586.612 963.772Z" stroke="#34333B" stroke-width="48" stroke-linejoin="round" mask="url(#path-14-outside-1_295_1976)"/>
<path fill-rule="evenodd" clip-rule="evenodd" d="M588.314 949.943L588.207 955.053L594.51 955.205L594.564 949.996L588.314 949.943Z" stroke="#34333B" stroke-width="48" stroke-linejoin="round" mask="url(#path-14-outside-1_295_1976)"/>
</svg>
